<svg xmlns="http://www.w3.org/2000/svg"  viewBox="0 0 100 100" width="100px" height="100px"><path fill="#f05b6c" d="M59,73.128c-0.277,0-0.553-0.115-0.748-0.337c-0.329-0.37-0.337-0.925-0.019-1.305 c2.711-3.24,4.78-6.666,6.15-10.181c1.43-3.715,2.143-7.509,2.117-11.271c-0.012-3.916-0.726-7.711-2.121-11.282 c-1.37-3.516-3.438-6.942-6.147-10.184c-0.317-0.38-0.309-0.935,0.02-1.305c0.195-0.222,0.471-0.337,0.748-0.337 c0.188,0,0.377,0.053,0.545,0.161c3.641,2.364,6.679,5.778,8.787,9.873c2.083,4.019,3.178,8.538,3.167,13.069 c-0.034,2.382-0.305,4.643-0.805,6.73c-0.625,2.45-1.4,4.521-2.372,6.344c-2.104,4.083-5.142,7.497-8.777,9.861 C59.378,73.075,59.188,73.128,59,73.128z"/><path fill="#1f212b" d="M59,27.926c3.538,2.298,6.458,5.639,8.443,9.493c1.996,3.852,3.067,8.23,3.056,12.608 c-0.031,2.187-0.268,4.376-0.778,6.501c-0.539,2.115-1.26,4.188-2.282,6.105c-1.985,3.853-4.903,7.194-8.439,9.494 c2.7-3.227,4.859-6.722,6.316-10.459c1.437-3.736,2.212-7.682,2.185-11.642c-0.012-3.956-0.73-7.907-2.189-11.64 C63.854,34.651,61.698,31.157,59,27.926 M59.001,25.926c-0.556,0-1.105,0.231-1.497,0.673c-0.657,0.74-0.673,1.849-0.039,2.609 c2.639,3.16,4.652,6.492,5.983,9.906c1.351,3.456,2.041,7.129,2.052,10.919c0.024,3.644-0.666,7.315-2.052,10.917 c-1.328,3.406-3.342,6.737-5.983,9.894c-0.635,0.759-0.619,1.87,0.038,2.61c0.392,0.442,0.942,0.673,1.497,0.673 c0.376,0,0.755-0.106,1.09-0.324c3.782-2.461,6.937-6.007,9.126-10.255c0.999-1.871,1.802-4.015,2.442-6.527 c0.524-2.185,0.804-4.52,0.84-6.966c0.012-4.715-1.122-9.395-3.28-13.557c-2.186-4.245-5.344-7.791-9.129-10.25 C59.755,26.032,59.377,25.926,59.001,25.926L59.001,25.926z"/><path fill="#f05b6c" stroke="#1f212b" stroke-linecap="round" stroke-linejoin="round" stroke-miterlimit="10" stroke-width="2" d="M50,14.027c-19.882,0-36,16.118-36,36s16.118,36,36,36s36-16.118,36-36S69.882,14.027,50,14.027z M80.961,51.549	c-0.005,0.111-0.015,0.221-0.022,0.333c-0.024,0.409-0.053,0.817-0.093,1.222c-0.008,0.084-0.018,0.168-0.027,0.252	c-0.049,0.46-0.105,0.918-0.174,1.372c-0.002,0.013-0.004,0.026-0.006,0.04c-0.529,3.449-1.632,6.707-3.2,9.682	C73.363,72.006,66.183,77.027,58,77.027c-12.703,0-23-12.088-23-27s10.297-27,23-27c8.183,0,15.363,5.021,19.44,12.578	c1.567,2.976,2.67,6.233,3.2,9.682c0.002,0.013,0.004,0.026,0.006,0.04c0.069,0.454,0.125,0.912,0.174,1.372	c0.009,0.084,0.019,0.168,0.027,0.252c0.04,0.405,0.069,0.813,0.093,1.222c0.006,0.111,0.016,0.221,0.022,0.333	C80.986,49.01,81,49.517,81,50.027S80.986,51.045,80.961,51.549z M19,50.027c0-17.121,13.879-31,31-31	c1.018,0,2.024,0.052,3.018,0.148C40.1,20.693,30,33.925,30,50.027c0,16.102,10.1,29.334,23.018,30.852	c-0.993,0.096-1.999,0.148-3.018,0.148C32.879,81.027,19,67.148,19,50.027z"/><path fill="none" stroke="#1f212b" stroke-linecap="round" stroke-linejoin="round" stroke-miterlimit="10" d="M41.991,38.527	c-1.56,3.158-2.491,7.154-2.491,11.5c0,7.802,3.002,14.476,7.25,17.196"/><path fill="none" stroke="#1f212b" stroke-linecap="round" stroke-linejoin="round" stroke-miterlimit="10" d="M47.5,31.966	c-1.25,0.562-2.593,1.854-3.643,3.561"/></svg>